<svg
  width="343"
  height="782"
  fill="none"
  xmlns="http://www.w3.org/2000/svg"
><path
    d="m40 36 1.572 4.837h5.085l-4.114 2.99 1.572 4.836L40 45.673l-4.114 2.99 1.571-4.837-4.114-2.99h5.085L40 36Zm30 41 1.572 4.837h5.085l-4.114 2.99 1.572 4.836L70 86.673l-4.115 2.99 1.572-4.837-4.114-2.99h5.085L70 77Zm91.5-61 2.582 7.946h8.355l-6.759 4.911 2.582 7.947-6.76-4.911-6.76 4.91 2.582-7.946-6.759-4.91h8.355L161.5 16Zm71 717 2.582 7.946h8.355l-6.759 4.911 2.582 7.947-6.76-4.911-6.76 4.911 2.582-7.947-6.759-4.911h8.355L232.5 733Zm-207-98 2.582 7.946h8.355l-6.76 4.911 2.583 7.947-6.76-4.911-6.76 4.911 2.582-7.947-6.76-4.911h8.356L25.5 635Zm141 23 2.582 7.946h8.355l-6.759 4.911 2.582 7.947-6.76-4.911-6.76 4.911 2.582-7.947-6.759-4.911h8.355L166.5 658ZM336 0l1.572 4.837h5.085l-4.114 2.99 1.571 4.836L336 9.673l-4.114 2.99 1.571-4.837-4.114-2.99h5.085L336 0Zm-48 77 1.572 4.837h5.085l-4.114 2.99 1.571 4.836-4.114-2.99-4.114 2.99 1.571-4.837-4.114-2.99h5.085L288 77Zm41 84 1.572 4.837h5.085l-4.114 2.989 1.571 4.837-4.114-2.989-4.114 2.989 1.571-4.837-4.114-2.989h5.085L329 161ZM131 607l1.572 4.837h5.085l-4.114 2.989 1.571 4.837-4.114-2.989-4.114 2.989 1.571-4.837-4.114-2.989h5.085L131 607Zm150 14 1.572 4.837h5.085l-4.114 2.989 1.571 4.837-4.114-2.989-4.114 2.989 1.571-4.837-4.114-2.989h5.085L281 621ZM10 768l1.572 4.837h5.085l-4.114 2.989 1.572 4.837L10 777.674l-4.114 2.989 1.571-4.837-4.114-2.989h5.085L10 768Zm299-315 1.572 4.837h5.085l-4.114 2.989 1.571 4.837-4.114-2.989-4.114 2.989 1.571-4.837-4.114-2.989h5.085L309 453Zm-58-174 1.572 4.837h5.085l-4.114 2.989 1.571 4.837-4.114-2.989-4.114 2.989 1.571-4.837-4.114-2.989h5.085L251 279Zm85 43 1.572 4.837h5.085l-4.114 2.989 1.571 4.837-4.114-2.989-4.114 2.989 1.571-4.837-4.114-2.989h5.085L336 322ZM7 293l1.572 4.837h5.085l-4.114 2.989 1.572 4.837L7 302.674l-4.114 2.989 1.571-4.837-4.114-2.989h5.085L7 293Zm3 221 1.572 4.837h5.085l-4.114 2.989 1.572 4.837L10 523.674l-4.114 2.989 1.571-4.837-4.114-2.989h5.085L10 514Zm.5-322 2.357 7.255h7.63l-6.173 4.484 2.358 7.256-6.172-4.484-6.172 4.484 2.358-7.256-6.172-4.484h7.629L10.5 192Z"
    fill="#D9CF78"
  /></svg>
